<?xml version="1.0" encoding="UTF-8"?>
<svg xmlns="http://www.w3.org/2000/svg" id="Layer_1" data-name="Layer 1" viewBox="0 0 588 114.34">
  <defs>
    <style>
      .cls-1 {
        fill: #fff;
      }
    </style>
  </defs>
  <path class="cls-1" d="M161.96,114.34c-.91,0-1.65-.74-1.65-1.65V1.65c0-.91.74-1.65,1.65-1.65s1.65.74,1.65,1.65v111.04c0,.91-.74,1.65-1.65,1.65Z"></path>
  <g>
    <g>
      <path class="cls-1" d="M209.94,8.62c-.16.32-.35.55-.56.68-.21.13-.46.2-.76.2s-.62-.11-.99-.34c-.37-.23-.8-.48-1.29-.76-.5-.28-1.08-.53-1.74-.76-.67-.23-1.45-.34-2.36-.34-.82,0-1.53.1-2.14.3-.61.2-1.12.47-1.53.82-.42.35-.73.77-.93,1.26-.21.49-.31,1.03-.31,1.61,0,.75.21,1.37.62,1.86.42.5.97.92,1.65,1.27.69.35,1.47.67,2.35.94.88.28,1.77.57,2.69.89s1.81.68,2.69,1.1c.88.42,1.66.94,2.35,1.58.69.64,1.24,1.41,1.65,2.34.42.92.63,2.04.63,3.36,0,1.43-.25,2.77-.74,4.02-.49,1.25-1.21,2.34-2.15,3.27-.94.93-2.09,1.66-3.45,2.19-1.36.53-2.92.8-4.67.8-1.01,0-2-.1-2.98-.3-.98-.2-1.92-.48-2.82-.84-.9-.37-1.74-.8-2.52-1.32-.78-.51-1.48-1.08-2.09-1.71l1.71-2.83c.16-.2.35-.38.58-.52.23-.14.48-.21.76-.21.37,0,.76.15,1.19.45.42.3.92.63,1.5,1,.58.37,1.26.7,2.04,1,.78.3,1.72.45,2.82.45,1.68,0,2.98-.4,3.9-1.2.92-.8,1.38-1.94,1.38-3.43,0-.83-.21-1.51-.62-2.04-.42-.53-.97-.97-1.66-1.33-.69-.36-1.47-.66-2.34-.91-.88-.25-1.77-.52-2.68-.81-.91-.29-1.8-.64-2.67-1.05-.88-.41-1.66-.94-2.35-1.6-.69-.66-1.24-1.48-1.66-2.47-.42-.99-.62-2.2-.62-3.65,0-1.15.23-2.28.69-3.38.46-1.1,1.13-2.07,2.02-2.92.88-.85,1.97-1.53,3.26-2.04,1.29-.51,2.75-.77,4.41-.77,1.87,0,3.6.29,5.18.88,1.58.59,2.92,1.4,4.03,2.46l-1.45,2.79Z"></path>
      <path class="cls-1" d="M229.23,29.81c1.14,0,2.16-.19,3.06-.57.9-.38,1.66-.91,2.28-1.6.62-.69,1.1-1.52,1.43-2.5.33-.98.49-2.08.49-3.29V2.85h5.9v18.99c0,1.89-.3,3.63-.91,5.23-.61,1.6-1.48,2.98-2.62,4.14-1.14,1.16-2.52,2.07-4.14,2.72-1.62.65-3.45.98-5.48.98s-3.86-.33-5.48-.98c-1.62-.65-3-1.56-4.13-2.72-1.13-1.16-2-2.54-2.61-4.14-.61-1.6-.91-3.35-.91-5.23V2.85h5.9v18.97c0,1.21.17,2.31.49,3.29.33.98.8,1.82,1.42,2.51.61.7,1.37,1.23,2.27,1.61.9.38,1.92.57,3.06.57Z"></path>
      <path class="cls-1" d="M270.2,27.09c.32,0,.6.12.83.37l2.32,2.52c-1.29,1.59-2.87,2.81-4.75,3.66-1.88.85-4.13,1.27-6.77,1.27-2.35,0-4.47-.4-6.35-1.21s-3.48-1.92-4.81-3.36c-1.33-1.43-2.35-3.14-3.06-5.13-.71-1.99-1.06-4.16-1.06-6.51s.4-4.57,1.19-6.55c.79-1.98,1.9-3.69,3.33-5.12,1.43-1.43,3.15-2.55,5.14-3.34,1.99-.8,4.2-1.19,6.61-1.19s4.41.38,6.17,1.13c1.76.75,3.27,1.75,4.53,2.99l-1.97,2.74c-.12.18-.27.33-.45.46-.18.13-.43.2-.76.2-.34,0-.68-.13-1.03-.39-.35-.26-.8-.55-1.34-.86-.54-.31-1.22-.59-2.05-.85-.83-.26-1.88-.4-3.15-.4-1.49,0-2.86.26-4.11.78-1.25.52-2.32,1.26-3.22,2.23-.9.96-1.6,2.14-2.11,3.52-.51,1.38-.76,2.94-.76,4.66s.25,3.37.76,4.76c.5,1.39,1.19,2.56,2.05,3.51.86.95,1.88,1.68,3.05,2.18,1.17.5,2.43.76,3.77.76.8,0,1.53-.04,2.18-.13s1.25-.23,1.8-.42c.55-.19,1.07-.44,1.56-.74.49-.3.97-.67,1.46-1.11.15-.13.3-.24.46-.32.16-.08.34-.12.53-.12Z"></path>
      <path class="cls-1" d="M299.61,27.09c.32,0,.6.12.83.37l2.32,2.52c-1.29,1.59-2.87,2.81-4.75,3.66-1.88.85-4.13,1.27-6.77,1.27-2.36,0-4.47-.4-6.35-1.21-1.88-.8-3.48-1.92-4.81-3.36-1.33-1.43-2.35-3.14-3.06-5.13-.71-1.99-1.06-4.16-1.06-6.51s.39-4.57,1.18-6.55c.79-1.98,1.9-3.69,3.33-5.12,1.43-1.43,3.15-2.55,5.14-3.34,2-.8,4.2-1.19,6.61-1.19s4.41.38,6.17,1.13c1.76.75,3.27,1.75,4.53,2.99l-1.97,2.74c-.12.18-.27.33-.45.46-.18.13-.44.2-.76.2s-.68-.13-1.03-.39c-.35-.26-.8-.55-1.34-.86-.54-.31-1.22-.59-2.05-.85-.83-.26-1.87-.4-3.15-.4-1.49,0-2.86.26-4.11.78-1.25.52-2.32,1.26-3.22,2.23-.9.96-1.6,2.14-2.11,3.52-.5,1.38-.76,2.94-.76,4.66s.25,3.37.76,4.76c.5,1.39,1.19,2.56,2.05,3.51.86.95,1.88,1.68,3.05,2.18,1.17.5,2.43.76,3.77.76.8,0,1.53-.04,2.18-.13.65-.09,1.25-.23,1.8-.42.55-.19,1.07-.44,1.56-.74.49-.3.98-.67,1.46-1.11.15-.13.3-.24.46-.32.16-.08.34-.12.53-.12Z"></path>
      <path class="cls-1" d="M327.22,2.85v4.69h-14.06v8.79h11.08v4.54h-11.08v8.97h14.06v4.72h-20V2.85h20Z"></path>
      <path class="cls-1" d="M349.33,8.62c-.16.32-.35.55-.56.68-.21.13-.46.2-.76.2s-.62-.11-.99-.34c-.37-.23-.8-.48-1.29-.76-.5-.28-1.08-.53-1.74-.76-.67-.23-1.45-.34-2.36-.34-.82,0-1.53.1-2.14.3-.61.2-1.12.47-1.53.82-.42.35-.73.77-.93,1.26-.21.49-.31,1.03-.31,1.61,0,.75.21,1.37.62,1.86.42.5.97.92,1.65,1.27.69.35,1.47.67,2.35.94.88.28,1.77.57,2.69.89s1.81.68,2.69,1.1c.88.42,1.66.94,2.35,1.58.69.64,1.24,1.41,1.65,2.34.42.92.63,2.04.63,3.36,0,1.43-.25,2.77-.74,4.02-.49,1.25-1.21,2.34-2.15,3.27-.94.93-2.09,1.66-3.45,2.19s-2.92.8-4.67.8c-1.01,0-2-.1-2.98-.3-.98-.2-1.92-.48-2.82-.84-.9-.37-1.74-.8-2.52-1.32-.78-.51-1.48-1.08-2.09-1.71l1.71-2.83c.16-.2.35-.38.58-.52.23-.14.48-.21.76-.21.37,0,.76.15,1.19.45.42.3.92.63,1.5,1,.58.37,1.26.7,2.04,1,.78.3,1.72.45,2.82.45,1.68,0,2.98-.4,3.9-1.2.92-.8,1.38-1.94,1.38-3.43,0-.83-.21-1.51-.62-2.04-.42-.53-.97-.97-1.66-1.33-.69-.36-1.47-.66-2.34-.91-.88-.25-1.77-.52-2.68-.81-.91-.29-1.8-.64-2.67-1.05-.88-.41-1.66-.94-2.35-1.6-.69-.66-1.24-1.48-1.66-2.47-.42-.99-.62-2.2-.62-3.65,0-1.15.23-2.28.69-3.38.46-1.1,1.13-2.07,2.02-2.92.88-.85,1.97-1.53,3.26-2.04,1.29-.51,2.75-.77,4.41-.77,1.87,0,3.6.29,5.18.88,1.58.59,2.92,1.4,4.03,2.46l-1.45,2.79Z"></path>
      <path class="cls-1" d="M372.86,8.62c-.16.32-.35.55-.56.68-.21.13-.46.2-.76.2s-.62-.11-.99-.34c-.37-.23-.8-.48-1.29-.76-.5-.28-1.08-.53-1.74-.76-.67-.23-1.45-.34-2.36-.34-.82,0-1.53.1-2.14.3-.61.2-1.12.47-1.53.82-.42.35-.73.77-.93,1.26-.21.49-.31,1.03-.31,1.61,0,.75.21,1.37.62,1.86.42.5.97.92,1.65,1.27.69.35,1.47.67,2.35.94.88.28,1.77.57,2.69.89.91.31,1.81.68,2.69,1.1.88.42,1.66.94,2.35,1.58.69.64,1.24,1.41,1.65,2.34.42.92.63,2.04.63,3.36,0,1.43-.25,2.77-.74,4.02s-1.21,2.34-2.15,3.27c-.94.93-2.09,1.66-3.45,2.19-1.36.53-2.92.8-4.67.8-1.01,0-2-.1-2.98-.3-.98-.2-1.92-.48-2.82-.84-.9-.37-1.74-.8-2.52-1.32-.78-.51-1.48-1.08-2.09-1.71l1.71-2.83c.16-.2.35-.38.58-.52.23-.14.48-.21.76-.21.37,0,.76.15,1.19.45.42.3.92.63,1.5,1,.58.37,1.26.7,2.04,1,.78.3,1.72.45,2.82.45,1.68,0,2.98-.4,3.9-1.2.92-.8,1.38-1.94,1.38-3.43,0-.83-.21-1.51-.62-2.04-.42-.53-.97-.97-1.66-1.33-.69-.36-1.47-.66-2.34-.91-.88-.25-1.77-.52-2.68-.81-.91-.29-1.8-.64-2.67-1.05-.88-.41-1.66-.94-2.35-1.6-.69-.66-1.24-1.48-1.66-2.47-.42-.99-.62-2.2-.62-3.65,0-1.15.23-2.28.69-3.38.46-1.1,1.13-2.07,2.02-2.92.88-.85,1.97-1.53,3.26-2.04,1.29-.51,2.75-.77,4.41-.77,1.87,0,3.6.29,5.18.88,1.58.59,2.92,1.4,4.03,2.46l-1.45,2.79Z"></path>
    </g>
    <g>
      <path class="cls-1" d="M190.53,79.43v-29.62h10.22c1.94,0,3.59.18,4.97.55,1.37.37,2.5.9,3.38,1.58.88.68,1.52,1.51,1.94,2.48.41.97.61,2.06.61,3.28,0,.7-.1,1.36-.31,2-.2.64-.52,1.23-.95,1.78-.43.55-.98,1.05-1.64,1.51-.66.45-1.45.83-2.36,1.15,4.07.92,6.1,3.11,6.1,6.6,0,1.26-.24,2.42-.72,3.48-.48,1.07-1.17,1.98-2.09,2.76-.92.77-2.04,1.38-3.38,1.81-1.34.44-2.87.66-4.59.66h-11.18ZM196.04,62.64h4.4c1.87,0,3.29-.34,4.26-1.03.97-.68,1.46-1.77,1.46-3.26s-.44-2.64-1.31-3.3c-.87-.65-2.24-.98-4.1-.98h-4.71v8.56ZM196.04,66.45v8.69h5.59c1.03,0,1.88-.12,2.57-.37.69-.24,1.24-.57,1.66-.98.42-.41.72-.89.9-1.43.18-.55.28-1.13.28-1.74s-.1-1.22-.31-1.73c-.2-.51-.53-.95-.96-1.31-.44-.36-1-.64-1.68-.83-.68-.19-1.51-.29-2.48-.29h-5.57Z"></path>
      <path class="cls-1" d="M229.14,74.99c1.07,0,2.02-.18,2.86-.53.84-.36,1.55-.85,2.13-1.5.58-.64,1.02-1.42,1.33-2.34.31-.91.46-1.94.46-3.07v-17.74h5.51v17.74c0,1.76-.28,3.39-.85,4.88-.57,1.5-1.38,2.78-2.45,3.87-1.07,1.08-2.35,1.93-3.87,2.54-1.51.61-3.22.91-5.12.91s-3.61-.3-5.12-.91c-1.52-.61-2.8-1.46-3.86-2.54-1.06-1.09-1.87-2.38-2.44-3.87-.57-1.5-.85-3.12-.85-4.88v-17.74h5.51v17.72c0,1.13.15,2.16.46,3.07.31.92.75,1.7,1.32,2.35.57.65,1.28,1.15,2.12,1.51.84.35,1.79.53,2.86.53Z"></path>
      <path class="cls-1" d="M262.91,55.2c-.15.3-.32.51-.52.63-.2.12-.43.19-.71.19s-.58-.11-.92-.32c-.34-.21-.74-.45-1.21-.71-.46-.26-1.01-.5-1.63-.71-.62-.21-1.36-.32-2.2-.32-.76,0-1.43.09-2,.28-.57.19-1.04.44-1.43.77-.39.33-.68.72-.87,1.18-.19.46-.29.96-.29,1.51,0,.7.19,1.28.58,1.74.39.46.9.86,1.55,1.19.64.33,1.37.62,2.19.88.82.26,1.66.54,2.51.83.85.29,1.69.63,2.51,1.03.82.39,1.55.88,2.19,1.47.64.59,1.16,1.32,1.55,2.18.39.86.59,1.9.59,3.13,0,1.34-.23,2.59-.69,3.76-.46,1.17-1.13,2.18-2.01,3.05-.88.87-1.95,1.55-3.22,2.05-1.27.5-2.73.75-4.36.75-.94,0-1.87-.09-2.79-.28-.91-.19-1.79-.45-2.63-.79-.84-.34-1.63-.75-2.36-1.23-.73-.48-1.38-1.01-1.95-1.6l1.6-2.64c.15-.19.33-.35.54-.48.21-.13.45-.19.71-.19.34,0,.71.14,1.11.42.4.28.86.59,1.4.93.54.34,1.17.65,1.9.93.73.28,1.61.42,2.63.42,1.57,0,2.79-.37,3.65-1.12.86-.74,1.29-1.81,1.29-3.21,0-.78-.2-1.41-.58-1.9-.39-.49-.9-.9-1.55-1.24-.64-.33-1.37-.62-2.19-.85-.82-.23-1.65-.48-2.5-.76-.85-.27-1.68-.6-2.5-.98-.82-.38-1.55-.88-2.19-1.5-.64-.61-1.16-1.38-1.55-2.3-.39-.92-.58-2.06-.58-3.41,0-1.08.21-2.13.64-3.16.43-1.02,1.06-1.93,1.88-2.72.83-.79,1.84-1.43,3.04-1.9,1.2-.48,2.57-.72,4.12-.72,1.75,0,3.36.27,4.84.82,1.47.55,2.73,1.31,3.77,2.29l-1.35,2.6Z"></path>
      <path class="cls-1" d="M275.23,79.43h-5.53v-29.62h5.53v29.62Z"></path>
      <path class="cls-1" d="M285.38,49.85c.16.02.31.06.44.12.13.06.26.15.38.27.12.12.26.27.41.46l15.55,19.81c-.06-.48-.09-.94-.11-1.4-.02-.46-.03-.88-.03-1.28v-18h4.85v29.62h-2.85c-.44,0-.8-.07-1.08-.2-.29-.14-.57-.38-.84-.74l-15.49-19.72c.04.44.07.87.09,1.3.02.43.03.82.03,1.18v18.19h-4.85v-29.62h2.89c.24,0,.45,0,.61.03Z"></path>
      <path class="cls-1" d="M331.53,49.81v4.38h-13.13v8.21h10.34v4.24h-10.34v8.38h13.13v4.4h-18.68v-29.62h18.68Z"></path>
      <path class="cls-1" d="M352.18,55.2c-.15.3-.32.51-.52.63-.2.12-.43.19-.71.19s-.58-.11-.92-.32c-.34-.21-.74-.45-1.21-.71-.46-.26-1.01-.5-1.63-.71-.62-.21-1.36-.32-2.2-.32-.76,0-1.43.09-2,.28-.57.19-1.04.44-1.43.77-.39.33-.68.72-.87,1.18-.19.46-.29.96-.29,1.51,0,.7.19,1.28.58,1.74.39.46.9.86,1.55,1.19.64.33,1.37.62,2.19.88.82.26,1.66.54,2.51.83.85.29,1.69.63,2.51,1.03.82.39,1.55.88,2.19,1.47.64.59,1.16,1.32,1.55,2.18.39.86.59,1.9.59,3.13,0,1.34-.23,2.59-.69,3.76-.46,1.17-1.13,2.18-2.01,3.05-.88.87-1.95,1.55-3.22,2.05-1.27.5-2.73.75-4.36.75-.94,0-1.87-.09-2.79-.28-.91-.19-1.79-.45-2.63-.79-.84-.34-1.63-.75-2.36-1.23-.73-.48-1.38-1.01-1.95-1.6l1.6-2.64c.15-.19.33-.35.54-.48.21-.13.45-.19.71-.19.34,0,.71.14,1.11.42.4.28.86.59,1.4.93.54.34,1.17.65,1.9.93.73.28,1.61.42,2.63.42,1.57,0,2.79-.37,3.65-1.12.86-.74,1.29-1.81,1.29-3.21,0-.78-.2-1.41-.58-1.9-.39-.49-.9-.9-1.55-1.24-.64-.33-1.37-.62-2.19-.85-.82-.23-1.65-.48-2.5-.76-.85-.27-1.68-.6-2.5-.98-.82-.38-1.55-.88-2.19-1.5-.64-.61-1.16-1.38-1.55-2.3-.39-.92-.58-2.06-.58-3.41,0-1.08.21-2.13.64-3.16.43-1.02,1.06-1.93,1.88-2.72.83-.79,1.84-1.43,3.04-1.9,1.2-.48,2.57-.72,4.12-.72,1.75,0,3.36.27,4.84.82,1.47.55,2.73,1.31,3.77,2.29l-1.35,2.6Z"></path>
      <path class="cls-1" d="M374.16,55.2c-.15.3-.33.51-.52.63-.2.12-.43.19-.71.19s-.58-.11-.92-.32c-.34-.21-.74-.45-1.21-.71-.46-.26-1.01-.5-1.63-.71-.62-.21-1.35-.32-2.2-.32-.77,0-1.43.09-2,.28-.57.19-1.04.44-1.43.77-.39.33-.68.72-.87,1.18-.19.46-.29.96-.29,1.51,0,.7.2,1.28.58,1.74.39.46.9.86,1.55,1.19.64.33,1.37.62,2.19.88.82.26,1.65.54,2.51.83.85.29,1.69.63,2.51,1.03.82.39,1.55.88,2.19,1.47.64.59,1.16,1.32,1.55,2.18.39.86.58,1.9.58,3.13,0,1.34-.23,2.59-.69,3.76-.46,1.17-1.13,2.18-2.01,3.05-.88.87-1.96,1.55-3.23,2.05-1.27.5-2.72.75-4.36.75-.94,0-1.87-.09-2.78-.28-.92-.19-1.79-.45-2.63-.79-.84-.34-1.63-.75-2.36-1.23-.73-.48-1.38-1.01-1.96-1.6l1.6-2.64c.15-.19.33-.35.54-.48.21-.13.45-.19.71-.19.34,0,.71.14,1.11.42.4.28.86.59,1.4.93.54.34,1.17.65,1.9.93.73.28,1.61.42,2.63.42,1.57,0,2.78-.37,3.65-1.12.86-.74,1.29-1.81,1.29-3.21,0-.78-.2-1.41-.59-1.9-.39-.49-.9-.9-1.55-1.24-.64-.33-1.37-.62-2.19-.85-.82-.23-1.65-.48-2.5-.76-.85-.27-1.68-.6-2.5-.98-.82-.38-1.55-.88-2.19-1.5-.64-.61-1.16-1.38-1.55-2.3-.39-.92-.59-2.06-.59-3.41,0-1.08.22-2.13.65-3.16.43-1.02,1.06-1.93,1.88-2.72.83-.79,1.84-1.43,3.04-1.9,1.2-.48,2.57-.72,4.12-.72,1.75,0,3.36.27,4.83.82,1.47.55,2.73,1.31,3.77,2.29l-1.35,2.6Z"></path>
      <path class="cls-1" d="M414.2,79.43h-4.26c-.48,0-.87-.12-1.18-.36-.31-.24-.53-.54-.67-.89l-2.21-6.04h-12.27l-2.21,6.04c-.11.31-.33.6-.65.86-.32.26-.71.39-1.18.39h-4.28l11.63-29.62h5.63l11.63,29.62ZM395.03,68.25h9.44l-3.61-9.85c-.16-.44-.34-.95-.54-1.55-.2-.59-.39-1.24-.59-1.94-.19.7-.38,1.35-.56,1.95-.18.6-.37,1.13-.54,1.58l-3.61,9.81Z"></path>
      <path class="cls-1" d="M443.55,64.62c0,2.17-.36,4.17-1.09,5.98-.72,1.82-1.74,3.38-3.05,4.69-1.31,1.31-2.89,2.33-4.73,3.05-1.84.72-3.89,1.09-6.12,1.09h-11.31v-29.62h11.31c2.24,0,4.28.37,6.12,1.1,1.84.73,3.42,1.75,4.73,3.05,1.31,1.3,2.33,2.87,3.05,4.68.72,1.82,1.09,3.81,1.09,5.98ZM437.92,64.62c0-1.62-.22-3.08-.66-4.37-.44-1.29-1.06-2.38-1.86-3.28-.81-.9-1.79-1.58-2.94-2.06-1.16-.48-2.46-.72-3.9-.72h-5.76v20.85h5.76c1.45,0,2.75-.24,3.9-.72,1.15-.48,2.13-1.16,2.94-2.06.81-.89,1.42-1.99,1.86-3.28.44-1.29.66-2.75.66-4.37Z"></path>
      <path class="cls-1" d="M443.82,49.81h4.45c.48,0,.87.11,1.17.35.3.23.53.53.68.9l6.96,18.07c.23.59.45,1.23.67,1.94.21.7.41,1.44.6,2.22.31-1.57.7-2.96,1.17-4.16l6.94-18.07c.12-.31.34-.6.65-.86.31-.26.7-.39,1.17-.39h4.45l-11.96,29.62h-4.98l-11.96-29.62Z"></path>
      <path class="cls-1" d="M482.02,79.43h-5.53v-29.62h5.53v29.62Z"></path>
      <path class="cls-1" d="M504.55,55.2c-.15.3-.32.51-.52.63-.2.12-.43.19-.71.19s-.58-.11-.92-.32c-.34-.21-.74-.45-1.21-.71-.46-.26-1.01-.5-1.63-.71-.62-.21-1.36-.32-2.2-.32-.76,0-1.43.09-2,.28-.57.19-1.04.44-1.43.77-.39.33-.68.72-.87,1.18-.19.46-.29.96-.29,1.51,0,.7.19,1.28.58,1.74.39.46.9.86,1.55,1.19.64.33,1.37.62,2.19.88.82.26,1.66.54,2.51.83.85.29,1.69.63,2.51,1.03.82.39,1.55.88,2.19,1.47.64.59,1.16,1.32,1.55,2.18.39.86.59,1.9.59,3.13,0,1.34-.23,2.59-.69,3.76-.46,1.17-1.13,2.18-2.01,3.05-.88.87-1.95,1.55-3.22,2.05-1.27.5-2.73.75-4.36.75-.94,0-1.87-.09-2.79-.28-.91-.19-1.79-.45-2.63-.79-.84-.34-1.63-.75-2.36-1.23-.73-.48-1.38-1.01-1.95-1.6l1.6-2.64c.15-.19.33-.35.54-.48.21-.13.45-.19.71-.19.34,0,.71.14,1.11.42.4.28.86.59,1.4.93.54.34,1.17.65,1.9.93.73.28,1.61.42,2.63.42,1.57,0,2.79-.37,3.65-1.12.86-.74,1.29-1.81,1.29-3.21,0-.78-.2-1.41-.58-1.9-.39-.49-.9-.9-1.55-1.24-.64-.33-1.37-.62-2.19-.85-.82-.23-1.65-.48-2.5-.76-.85-.27-1.68-.6-2.5-.98-.82-.38-1.55-.88-2.19-1.5-.64-.61-1.16-1.38-1.55-2.3-.39-.92-.58-2.06-.58-3.41,0-1.08.21-2.13.64-3.16.43-1.02,1.06-1.93,1.88-2.72.83-.79,1.84-1.43,3.04-1.9,1.2-.48,2.57-.72,4.12-.72,1.75,0,3.36.27,4.84.82,1.47.55,2.73,1.31,3.77,2.29l-1.35,2.6Z"></path>
      <path class="cls-1" d="M539.07,64.62c0,2.17-.36,4.18-1.09,6.03-.72,1.85-1.74,3.45-3.05,4.8-1.31,1.35-2.89,2.41-4.73,3.17-1.84.76-3.88,1.14-6.12,1.14s-4.28-.38-6.14-1.14c-1.85-.76-3.43-1.81-4.75-3.17-1.32-1.35-2.34-2.95-3.06-4.8-.72-1.85-1.09-3.86-1.09-6.03s.36-4.18,1.09-6.03c.72-1.85,1.74-3.45,3.06-4.8,1.32-1.35,2.9-2.41,4.75-3.16,1.85-.76,3.9-1.14,6.14-1.14s4.28.38,6.12,1.15c1.84.77,3.42,1.82,4.73,3.17,1.31,1.34,2.33,2.94,3.05,4.79.72,1.85,1.09,3.86,1.09,6.03ZM533.41,64.62c0-1.62-.21-3.08-.64-4.37-.43-1.29-1.05-2.39-1.85-3.29-.81-.9-1.79-1.59-2.94-2.07-1.16-.48-2.46-.72-3.9-.72s-2.75.24-3.91.72c-1.16.48-2.15,1.17-2.96,2.07-.81.9-1.44,2-1.87,3.29-.44,1.29-.66,2.75-.66,4.37s.22,3.08.66,4.37c.44,1.29,1.06,2.38,1.87,3.28.81.9,1.8,1.58,2.96,2.06,1.16.48,2.47.72,3.91.72s2.75-.24,3.9-.72c1.15-.48,2.13-1.16,2.94-2.06.81-.89,1.42-1.99,1.85-3.28.43-1.29.64-2.75.64-4.37Z"></path>
      <path class="cls-1" d="M549.1,67.86v11.57h-5.51v-29.62h9.03c2.02,0,3.75.21,5.19.62,1.44.42,2.62,1,3.54,1.75.92.75,1.6,1.65,2.03,2.69.43,1.04.64,2.2.64,3.45,0,1-.15,1.94-.44,2.83-.29.89-.72,1.69-1.27,2.42-.55.72-1.24,1.36-2.05,1.9-.81.55-1.74.98-2.78,1.31.7.4,1.3.96,1.8,1.7l7.41,10.94h-4.96c-.48,0-.89-.1-1.22-.29-.33-.19-.62-.46-.85-.82l-6.23-9.49c-.23-.35-.49-.61-.77-.76-.28-.15-.69-.23-1.24-.23h-2.36ZM549.1,63.91h3.44c1.04,0,1.94-.13,2.71-.39.77-.26,1.41-.62,1.9-1.07.5-.46.87-1,1.12-1.63.25-.63.37-1.32.37-2.07,0-1.5-.5-2.66-1.49-3.46-.99-.81-2.5-1.21-4.54-1.21h-3.52v9.83Z"></path>
      <path class="cls-1" d="M586.12,55.2c-.15.3-.33.51-.52.63-.2.12-.43.19-.71.19s-.58-.11-.92-.32c-.34-.21-.74-.45-1.21-.71-.46-.26-1.01-.5-1.63-.71-.62-.21-1.35-.32-2.2-.32-.77,0-1.43.09-2,.28-.57.19-1.04.44-1.43.77-.39.33-.68.72-.87,1.18-.19.46-.29.96-.29,1.51,0,.7.2,1.28.58,1.74.39.46.9.86,1.55,1.19.64.33,1.37.62,2.19.88.82.26,1.65.54,2.51.83.85.29,1.69.63,2.51,1.03.82.39,1.55.88,2.19,1.47.64.59,1.16,1.32,1.55,2.18.39.86.58,1.9.58,3.13,0,1.34-.23,2.59-.69,3.76-.46,1.17-1.13,2.18-2.01,3.05-.88.87-1.96,1.55-3.23,2.05-1.27.5-2.72.75-4.36.75-.94,0-1.87-.09-2.78-.28-.92-.19-1.79-.45-2.63-.79-.84-.34-1.63-.75-2.36-1.23-.73-.48-1.38-1.01-1.96-1.6l1.6-2.64c.15-.19.33-.35.54-.48.21-.13.45-.19.71-.19.34,0,.71.14,1.11.42.4.28.86.59,1.4.93.54.34,1.17.65,1.9.93.73.28,1.61.42,2.63.42,1.57,0,2.78-.37,3.65-1.12.86-.74,1.29-1.81,1.29-3.21,0-.78-.2-1.41-.59-1.9-.39-.49-.9-.9-1.55-1.24-.64-.33-1.37-.62-2.19-.85-.82-.23-1.65-.48-2.5-.76-.85-.27-1.68-.6-2.5-.98-.82-.38-1.55-.88-2.19-1.5-.64-.61-1.16-1.38-1.55-2.3-.39-.92-.59-2.06-.59-3.41,0-1.08.22-2.13.65-3.16.43-1.02,1.06-1.93,1.88-2.72.83-.79,1.84-1.43,3.04-1.9,1.2-.48,2.57-.72,4.12-.72,1.75,0,3.36.27,4.83.82,1.47.55,2.73,1.31,3.77,2.29l-1.35,2.6Z"></path>
    </g>
    <g>
      <path class="cls-1" d="M198.06,105.69v5.98h-2.02v-5.98l-5.5-9.05h1.78c.18,0,.32.04.43.14.1.09.2.2.27.33l3.44,5.84c.14.25.26.48.35.69.09.22.18.43.26.64.08-.22.16-.43.25-.65s.21-.44.35-.68l3.43-5.84c.06-.11.15-.22.26-.32.11-.1.25-.15.42-.15h1.8l-5.51,9.05Z"></path>
      <path class="cls-1" d="M218.58,104.15c0,1.13-.18,2.16-.53,3.1s-.86,1.75-1.51,2.43c-.65.68-1.43,1.2-2.34,1.58-.91.37-1.92.56-3.02.56s-2.11-.19-3.02-.56c-.91-.37-1.69-.9-2.34-1.58-.65-.68-1.15-1.49-1.51-2.43-.36-.94-.53-1.97-.53-3.1s.18-2.16.53-3.1c.36-.94.86-1.75,1.51-2.43.65-.68,1.43-1.21,2.34-1.59.91-.38,1.92-.57,3.02-.57s2.11.19,3.02.57c.91.38,1.69.91,2.34,1.59.65.68,1.15,1.49,1.51,2.43.36.94.53,1.97.53,3.1ZM216.49,104.15c0-.92-.12-1.75-.38-2.48-.25-.74-.61-1.36-1.07-1.86-.46-.51-1.02-.9-1.68-1.17-.66-.27-1.39-.41-2.2-.41s-1.53.14-2.19.41c-.66.27-1.22.66-1.68,1.17-.46.51-.82,1.13-1.08,1.86-.25.73-.38,1.56-.38,2.48s.12,1.75.38,2.48c.25.73.61,1.35,1.08,1.86.46.51,1.03.89,1.68,1.17.66.27,1.39.4,2.19.4s1.54-.14,2.2-.4c.66-.27,1.22-.66,1.68-1.17.46-.51.82-1.12,1.07-1.86.25-.73.38-1.56.38-2.48Z"></path>
      <path class="cls-1" d="M227.19,110.05c.62,0,1.18-.11,1.67-.32.49-.21.9-.5,1.24-.88.34-.38.6-.83.78-1.35.18-.52.27-1.1.27-1.73v-9.13h2.02v9.13c0,.87-.14,1.67-.41,2.41-.28.74-.67,1.38-1.18,1.92-.51.54-1.14.97-1.88,1.27-.74.31-1.57.46-2.5.46s-1.75-.15-2.5-.46c-.74-.31-1.37-.73-1.89-1.27-.52-.54-.91-1.18-1.19-1.92-.28-.74-.41-1.54-.41-2.41v-9.13h2.02v9.12c0,.63.09,1.21.27,1.73.18.52.44.97.78,1.35.34.38.75.67,1.25.88.49.22,1.05.32,1.67.32Z"></path>
      <path class="cls-1" d="M238.9,105.39v6.27h-2.02v-15.03h4.25c.95,0,1.77.1,2.46.29s1.26.47,1.71.83c.45.36.79.8,1,1.31.22.51.33,1.09.33,1.73,0,.53-.08,1.03-.25,1.49-.17.46-.41.87-.73,1.24-.32.37-.71.68-1.16.94-.46.26-.98.45-1.56.59.25.15.48.36.67.64l4.38,5.97h-1.8c-.37,0-.64-.14-.82-.43l-3.9-5.37c-.12-.17-.25-.29-.39-.36-.14-.07-.35-.11-.63-.11h-1.54ZM238.9,103.91h2.13c.59,0,1.12-.07,1.57-.22.45-.14.83-.35,1.13-.61s.53-.57.69-.94c.15-.36.23-.77.23-1.21,0-.89-.29-1.57-.89-2.02-.59-.45-1.47-.68-2.64-.68h-2.22v5.67Z"></path>
      <path class="cls-1" d="M260.91,110.18c.41,0,.78-.02,1.12-.06.34-.04.66-.1.96-.17.3-.08.58-.17.85-.28s.53-.23.8-.37v-3.31h-2.33c-.13,0-.24-.04-.32-.11-.08-.08-.12-.17-.12-.28v-1.16h4.61v5.77c-.38.27-.77.51-1.18.71-.41.2-.85.37-1.31.51-.47.14-.96.24-1.49.3-.53.07-1.11.1-1.73.1-1.09,0-2.09-.19-3-.56-.91-.37-1.69-.9-2.35-1.57-.66-.67-1.17-1.48-1.54-2.43-.37-.94-.55-1.98-.55-3.11s.18-2.19.54-3.14c.36-.94.87-1.75,1.54-2.43.67-.67,1.48-1.2,2.42-1.57.95-.37,2.01-.55,3.18-.55.59,0,1.15.04,1.66.13.51.09.98.21,1.42.38.44.17.84.36,1.21.6.37.24.72.5,1.04.79l-.58.92c-.12.19-.27.28-.46.28-.11,0-.23-.04-.37-.12-.17-.1-.37-.22-.59-.36-.22-.14-.48-.27-.79-.4-.31-.13-.68-.24-1.1-.33-.42-.09-.92-.14-1.51-.14-.85,0-1.61.14-2.3.42-.69.27-1.27.67-1.75,1.18-.48.51-.85,1.14-1.11,1.87-.26.73-.39,1.55-.39,2.46s.13,1.8.4,2.54c.27.74.65,1.37,1.14,1.89.49.52,1.07.91,1.74,1.18.67.27,1.41.41,2.22.41Z"></path>
      <path class="cls-1" d="M271.84,105.39v6.27h-2.02v-15.03h4.25c.95,0,1.77.1,2.46.29.69.19,1.26.47,1.71.83.45.36.79.8,1,1.31.22.51.33,1.09.33,1.73,0,.53-.08,1.03-.25,1.49-.17.46-.41.87-.73,1.24-.32.37-.71.68-1.16.94-.46.26-.98.45-1.56.59.25.15.48.36.67.64l4.38,5.97h-1.8c-.37,0-.64-.14-.82-.43l-3.9-5.37c-.12-.17-.25-.29-.39-.36-.14-.07-.35-.11-.63-.11h-1.54ZM271.84,103.91h2.13c.59,0,1.12-.07,1.57-.22.45-.14.83-.35,1.13-.61.3-.26.53-.57.69-.94.15-.36.23-.77.23-1.21,0-.89-.29-1.57-.89-2.02-.59-.45-1.47-.68-2.64-.68h-2.22v5.67Z"></path>
      <path class="cls-1" d="M296.58,104.15c0,1.13-.18,2.16-.53,3.1s-.86,1.75-1.51,2.43c-.65.68-1.43,1.2-2.34,1.58s-1.92.56-3.02.56-2.11-.19-3.02-.56c-.91-.37-1.69-.9-2.34-1.58-.65-.68-1.15-1.49-1.51-2.43s-.53-1.97-.53-3.1.18-2.16.53-3.1c.36-.94.86-1.75,1.51-2.43.65-.68,1.43-1.21,2.34-1.59.91-.38,1.92-.57,3.02-.57s2.11.19,3.02.57c.91.38,1.69.91,2.34,1.59.65.68,1.15,1.49,1.51,2.43.36.94.53,1.97.53,3.1ZM294.5,104.15c0-.92-.12-1.75-.38-2.48-.25-.74-.61-1.36-1.07-1.86-.46-.51-1.02-.9-1.68-1.17-.66-.27-1.39-.41-2.2-.41s-1.53.14-2.19.41c-.66.27-1.22.66-1.68,1.17-.46.51-.82,1.13-1.08,1.86-.25.73-.38,1.56-.38,2.48s.12,1.75.38,2.48c.25.73.61,1.35,1.08,1.86.46.51,1.03.89,1.68,1.17.66.27,1.39.4,2.19.4s1.54-.14,2.2-.4c.66-.27,1.22-.66,1.68-1.17.46-.51.82-1.12,1.07-1.86.25-.73.38-1.56.38-2.48Z"></path>
      <path class="cls-1" d="M297.69,96.64h1.69c.18,0,.33.04.45.14.12.09.2.2.24.35l3.1,10.44c.06.19.11.39.15.61.05.22.09.44.13.68.05-.24.1-.47.15-.69.05-.22.1-.42.17-.6l3.53-10.44c.04-.12.12-.23.25-.33.12-.1.27-.15.45-.15h.59c.18,0,.33.04.45.14.12.09.2.2.25.35l3.51,10.44c.13.36.24.78.34,1.25.04-.23.08-.45.11-.66.03-.21.08-.41.14-.59l3.11-10.44c.03-.13.11-.24.24-.34.12-.1.27-.15.45-.15h1.58l-4.69,15.03h-1.82l-3.81-11.46c-.08-.22-.15-.47-.21-.76-.04.14-.07.27-.1.4-.03.13-.06.25-.1.35l-3.83,11.46h-1.82l-4.69-15.03Z"></path>
      <path class="cls-1" d="M330.97,96.64v1.71h-4.85v13.32h-2.03v-13.32h-4.88v-1.71h11.76Z"></path>
      <path class="cls-1" d="M345.29,111.66h-2.04v-6.84h-8.09v6.84h-2.04v-15.03h2.04v6.7h8.09v-6.7h2.04v15.03Z"></path>
      <path class="cls-1" d="M355.24,106.04v5.62h-2.02v-15.03h4.43c.95,0,1.78.11,2.48.33.7.22,1.28.53,1.75.94.46.41.81.89,1.03,1.47.23.57.34,1.21.34,1.92s-.12,1.34-.37,1.92c-.24.58-.6,1.08-1.08,1.5-.47.42-1.06.75-1.76.98-.7.24-1.5.35-2.4.35h-2.41ZM355.24,104.43h2.41c.58,0,1.09-.08,1.54-.23.44-.15.82-.37,1.12-.65.3-.28.53-.61.68-.99.15-.38.23-.81.23-1.27,0-.96-.3-1.7-.89-2.24-.59-.54-1.48-.81-2.68-.81h-2.41v6.19Z"></path>
      <path class="cls-1" d="M376.73,111.66h-1.57c-.18,0-.33-.05-.44-.14-.11-.09-.2-.2-.25-.35l-1.4-3.63h-6.74l-1.4,3.63c-.05.13-.13.24-.25.34-.12.1-.27.15-.44.15h-1.57l6.01-15.03h2.07l6.01,15.03ZM366.89,106.08h5.61l-2.36-6.11c-.15-.38-.3-.85-.45-1.42-.08.29-.15.55-.23.79-.07.24-.14.45-.22.63l-2.36,6.1Z"></path>
      <path class="cls-1" d="M380.86,105.39v6.27h-2.02v-15.03h4.25c.95,0,1.77.1,2.46.29.69.19,1.26.47,1.71.83.45.36.79.8,1,1.31.22.51.33,1.09.33,1.73,0,.53-.08,1.03-.25,1.49-.17.46-.41.87-.73,1.24-.32.37-.71.68-1.16.94-.46.26-.98.45-1.56.59.25.15.48.36.67.64l4.38,5.97h-1.8c-.37,0-.64-.14-.82-.43l-3.9-5.37c-.12-.17-.25-.29-.39-.36-.14-.07-.35-.11-.63-.11h-1.54ZM380.86,103.91h2.13c.59,0,1.12-.07,1.57-.22.45-.14.83-.35,1.13-.61.3-.26.53-.57.69-.94.15-.36.23-.77.23-1.21,0-.89-.29-1.57-.89-2.02-.59-.45-1.47-.68-2.64-.68h-2.22v5.67Z"></path>
      <path class="cls-1" d="M401.82,96.64v1.71h-4.85v13.32h-2.03v-13.32h-4.87v-1.71h11.76Z"></path>
      <path class="cls-1" d="M405.41,96.7c.09.05.19.14.3.28l8.7,11.32c-.02-.18-.03-.36-.04-.53,0-.17-.01-.34-.01-.5v-10.64h1.78v15.03h-1.03c-.16,0-.29-.03-.4-.08-.11-.06-.22-.15-.32-.28l-8.69-11.31c.01.18.02.35.03.51s.01.32.01.46v10.71h-1.78v-15.03h1.05c.18,0,.32.02.4.07Z"></path>
      <path class="cls-1" d="M429.07,96.64v1.66h-7.21v4.99h5.84v1.59h-5.84v5.13h7.21v1.66h-9.26v-15.03h9.26Z"></path>
      <path class="cls-1" d="M434.23,105.39v6.27h-2.02v-15.03h4.25c.95,0,1.77.1,2.46.29s1.26.47,1.71.83c.45.36.79.8,1,1.31.22.51.33,1.09.33,1.73,0,.53-.08,1.03-.25,1.49-.17.46-.41.87-.73,1.24-.32.37-.71.68-1.16.94-.46.26-.98.45-1.56.59.25.15.48.36.67.64l4.38,5.97h-1.8c-.37,0-.64-.14-.82-.43l-3.9-5.37c-.12-.17-.25-.29-.39-.36-.14-.07-.35-.11-.63-.11h-1.54ZM434.23,103.91h2.13c.59,0,1.12-.07,1.57-.22.45-.14.83-.35,1.13-.61s.53-.57.69-.94c.15-.36.23-.77.23-1.21,0-.89-.29-1.57-.89-2.02-.59-.45-1.47-.68-2.64-.68h-2.22v5.67Z"></path>
    </g>
  </g>
  <g>
    <path class="cls-1" d="M93.25,18.42l-30.03,30.36H26.11c.23-8.1,1.77-17.67,6.72-23.62,2.41-2.89,6.91-6.74,18.16-6.74h42.27ZM133.45,1.65H50.98C-1.42,1.65,10.44,65.56,10.44,65.56h59.79L133.45,1.65h0Z"></path>
    <path class="cls-1" d="M107.34,65.56c-.23,8.22-1.82,17.76-6.76,23.67-1.39,1.66-5.61,6.69-18.11,6.69h-42.27l30.03-30.36h37.12ZM123.01,48.78h-59.79L0,112.69h82.47c52.4,0,40.55-63.91,40.55-63.91h0Z"></path>
    <polygon class="cls-1" points="46.63 65.56 70.22 65.56 58.42 77.49 34.83 77.49 46.63 65.56"></polygon>
    <polygon class="cls-1" points="63.22 48.78 86.82 48.78 98.32 37.15 74.73 37.15 63.22 48.78"></polygon>
  </g>
</svg>
